<?xml version="1.0" standalone="no"?>
<!DOCTYPE svg PUBLIC "-//W3C//DTD SVG 20010904//EN"
 "http://www.w3.org/TR/2001/REC-SVG-20010904/DTD/svg10.dtd">
<svg version="1.0" xmlns="http://www.w3.org/2000/svg"
 width="640.000000pt" height="640.000000pt" viewBox="0 0 640.000000 640.000000"
 preserveAspectRatio="xMidYMid meet">
<metadata>
Created by potrace 1.14, written by Peter Selinger 2001-2017
</metadata>
<g transform="translate(0.000000,640.000000) scale(0.100000,-0.100000)"
fill="#000000" stroke="none">
<path d="M3407 5383 c-4 -3 -35 -7 -70 -9 -34 -1 -72 -4 -83 -7 -12 -3 -37 -8
-55 -11 -19 -3 -45 -8 -59 -11 -31 -7 -128 -23 -225 -39 -16 -2 -55 -9 -85
-15 -30 -6 -71 -13 -90 -16 -19 -3 -48 -8 -65 -11 -16 -4 -41 -7 -55 -9 -14
-2 -50 -9 -80 -15 -30 -7 -68 -13 -85 -15 -60 -8 -108 -16 -173 -30 -37 -7
-70 -11 -74 -9 -4 3 -8 0 -8 -6 0 -6 -3 -9 -7 -7 -7 4 -178 -21 -253 -37 -13
-3 -40 -8 -60 -11 -20 -3 -45 -7 -57 -9 -12 -3 -43 -8 -70 -12 -26 -5 -50 -9
-53 -9 -3 -1 -27 -5 -55 -10 -27 -4 -59 -10 -70 -12 -11 -2 -33 -6 -50 -9 -16
-3 -52 -9 -80 -14 -27 -5 -66 -12 -85 -14 -19 -3 -46 -8 -60 -11 -14 -3 -41
-8 -60 -10 -32 -5 -85 -14 -117 -21 -14 -3 -92 -15 -113 -18 -9 -1 -21 -5 -27
-9 -9 -6 -12 -432 -11 -1772 0 -971 3 -1765 7 -1766 3 0 13 -2 21 -4 8 -1 42
-8 75 -14 33 -6 70 -13 81 -15 12 -2 39 -7 60 -10 22 -4 77 -13 124 -22 47 -9
96 -17 110 -19 14 -2 79 -13 145 -25 66 -11 136 -23 155 -26 19 -2 59 -9 88
-15 29 -6 65 -12 80 -14 15 -2 50 -9 79 -14 29 -6 71 -13 95 -16 50 -7 83 -13
83 -15 0 -1 14 -3 30 -5 25 -3 83 -14 105 -20 11 -3 107 -18 135 -21 17 -2 41
-6 55 -9 14 -3 41 -8 60 -11 19 -3 42 -7 50 -9 8 -3 33 -7 55 -10 22 -3 51 -8
65 -11 14 -2 37 -7 53 -9 46 -8 70 -13 137 -25 36 -7 76 -14 90 -16 66 -12
137 -25 160 -29 14 -3 41 -8 60 -11 19 -4 43 -11 53 -16 9 -5 17 -5 17 -1 0 4
45 6 100 3 55 -3 100 -1 100 3 0 4 9 3 19 -3 11 -5 22 -6 25 -2 3 5 18 7 33 5
l28 -5 0 229 0 228 790 1 c434 1 815 4 846 7 68 7 139 34 139 53 0 8 4 14 9
14 5 0 15 24 22 53 11 42 14 345 14 1637 l0 1585 -25 49 c-28 57 -69 83 -140
90 -25 2 -407 5 -850 5 l-805 1 0 204 0 203 -72 -1 c-40 -1 -73 3 -73 8 0 5
-6 4 -13 -3 -9 -7 -17 -7 -23 -1 -6 6 -13 7 -17 3z"/>
</g>
</svg>
